<?xml version="1.0" encoding="UTF-8"?>
<svg xmlns="http://www.w3.org/2000/svg" xmlns:xlink="http://www.w3.org/1999/xlink" width="150pt" height="30pt" viewBox="0 0 150 30" version="1.1">
<g id="surface1">
<path style=" stroke:none;fill-rule:nonzero;fill:rgb(0%,0%,0%);fill-opacity:1;" d="M 66.15625 12.136719 L 66.058594 12.652344 L 65.46875 12.652344 C 65.242188 12.652344 65.082031 12.695313 64.980469 12.785156 C 64.875 12.871094 64.800781 13.035156 64.75 13.269531 L 64.683594 13.601563 L 65.703125 13.601563 L 65.609375 14.082031 L 64.59375 14.082031 L 63.957031 17.359375 L 63.335938 17.359375 L 63.976563 14.082031 L 63.386719 14.082031 L 63.472656 13.601563 L 64.066406 13.601563 L 64.113281 13.339844 C 64.199219 12.894531 64.347656 12.585938 64.5625 12.40625 C 64.777344 12.226563 65.113281 12.136719 65.570313 12.136719 Z M 66.15625 12.136719 "/>
<path style=" stroke:none;fill-rule:nonzero;fill:rgb(0%,0%,0%);fill-opacity:1;" d="M 67.417969 12.144531 C 67.121094 12.660156 66.898438 13.167969 66.75 13.671875 C 66.605469 14.175781 66.535156 14.683594 66.535156 15.203125 C 66.535156 15.71875 66.605469 16.230469 66.753906 16.738281 C 66.902344 17.242188 67.121094 17.753906 67.417969 18.265625 L 66.882813 18.265625 C 66.546875 17.738281 66.296875 17.222656 66.128906 16.714844 C 65.964844 16.207031 65.878906 15.703125 65.878906 15.203125 C 65.878906 14.703125 65.960938 14.199219 66.128906 13.695313 C 66.292969 13.1875 66.546875 12.671875 66.882813 12.144531 Z M 67.417969 12.144531 "/>
<path style=" stroke:none;fill-rule:nonzero;fill:rgb(0%,0%,0%);fill-opacity:1;" d="M 72.09375 13.601563 L 70.371094 15.445313 L 71.425781 17.359375 L 70.71875 17.359375 L 69.921875 15.867188 L 68.539063 17.359375 L 67.792969 17.359375 L 69.640625 15.378906 L 68.660156 13.601563 L 69.367188 13.601563 L 70.089844 14.960938 L 71.347656 13.601563 Z M 72.09375 13.601563 "/>
<path style=" stroke:none;fill-rule:nonzero;fill:rgb(0%,0%,0%);fill-opacity:1;" d="M 72.589844 12.144531 L 73.125 12.144531 C 73.460938 12.671875 73.710938 13.1875 73.878906 13.695313 C 74.046875 14.199219 74.128906 14.703125 74.128906 15.203125 C 74.128906 15.703125 74.046875 16.207031 73.878906 16.714844 C 73.710938 17.222656 73.460938 17.738281 73.125 18.265625 L 72.589844 18.265625 C 72.886719 17.753906 73.109375 17.242188 73.253906 16.738281 C 73.402344 16.230469 73.472656 15.71875 73.472656 15.203125 C 73.472656 14.683594 73.402344 14.175781 73.253906 13.671875 C 73.109375 13.167969 72.886719 12.660156 72.589844 12.144531 Z M 72.589844 12.144531 "/>
<path style=" stroke:none;fill-rule:nonzero;fill:rgb(0%,0%,0%);fill-opacity:1;" d="M 76.785156 14.238281 L 81.089844 14.238281 L 81.089844 14.800781 L 76.785156 14.800781 Z M 76.785156 15.609375 L 81.089844 15.609375 L 81.089844 16.179688 L 76.785156 16.179688 Z M 76.785156 15.609375 "/>
<path style=" stroke:none;fill-rule:nonzero;fill:rgb(0%,0%,0%);fill-opacity:1;" d="M 83.753906 13.949219 L 84.527344 13.949219 L 84.527344 11.273438 L 83.683594 11.441406 L 83.683594 11.011719 L 84.523438 10.84375 L 84.996094 10.84375 L 84.996094 13.949219 L 85.773438 13.949219 L 85.773438 14.347656 L 83.753906 14.347656 Z M 83.753906 13.949219 "/>
<path style=" stroke:none;fill-rule:nonzero;fill:rgb(0%,0%,0%);fill-opacity:1;" d="M 86.179688 16.496094 L 84.972656 17.789063 L 85.714844 19.128906 L 85.21875 19.128906 L 84.660156 18.085938 L 83.691406 19.128906 L 83.167969 19.128906 L 84.460938 17.742188 L 83.773438 16.496094 L 84.269531 16.496094 L 84.777344 17.449219 L 85.65625 16.496094 Z M 86.179688 16.496094 "/>
<path style=" stroke:none;fill-rule:nonzero;fill:rgb(0%,0%,0%);fill-opacity:1;" d="M 83.15625 16.066406 L 83.15625 15.636719 L 86.214844 15.636719 L 86.214844 16.066406 Z M 83.15625 16.066406 "/>
</g>
</svg>
